<svg width="9" height="12" viewBox="0 0 9 12" fill="none" xmlns="http://www.w3.org/2000/svg">
<path d="M0.779511 4.29666L0.706178 4.03666C0.155511 2.09799 0.322177 0.709322 1.16418 0.225322C1.98751 -0.251344 3.31218 0.311989 4.69951 1.73532L4.88884 1.92999L4.69951 2.12399C4.20676 2.63645 3.7564 3.18803 3.35284 3.77332L3.27751 3.88132L3.14684 3.89199C2.43723 3.94772 1.73335 4.06121 1.04218 4.23132L0.779511 4.29666ZM1.83418 0.610655C1.68484 0.610655 1.55284 0.643322 1.44151 0.707322C0.889511 1.02532 0.792177 2.13266 1.17218 3.62732C1.76618 3.49599 2.36551 3.40199 2.96951 3.34932C3.31919 2.85336 3.70065 2.38059 4.11151 1.93399C3.24284 1.08932 2.42284 0.610655 1.83418 0.610655ZM7.16551 11.9333C6.37351 11.9333 5.35618 11.336 4.30018 10.252L4.11151 10.058L4.30018 9.86466C4.793 9.35137 5.24358 8.79914 5.64751 8.21332L5.72218 8.10666L5.85151 8.09399C6.56137 8.03924 7.26552 7.9262 7.95684 7.75599L8.22018 7.68932L8.29418 7.94999C8.84218 9.88732 8.67618 11.278 7.83551 11.762C7.6314 11.8777 7.40011 11.9368 7.16551 11.9333ZM4.88884 10.0533C5.75684 10.898 6.57751 11.3773 7.16551 11.3773C7.31551 11.3773 7.44751 11.344 7.55818 11.2807C8.11084 10.962 8.20884 9.85266 7.82751 8.35799C7.23418 8.48999 6.63418 8.58466 6.02884 8.63732C5.68065 9.13407 5.29981 9.60711 4.88884 10.0533Z" fill="#111827"/>
</svg>
